<svg xmlns="http://www.w3.org/2000/svg" viewBox="-29.74000610351561 -1.0699996948242188 634.4800109863281 564.5649995803833"> <svg xmlns="http://www.w3.org/2000/svg" viewBox="-0.009998349472880363 0 103.27513885498047 118.71757507324219" height="289.9974365234375" width="252.27538590286656" y="68.93000030517578" x="160.36" preserveAspectRatio="xMinYMin" style="overflow: visible;"><circle id="Layer_1-2" dataName="Layer 1" class="cls-1" cx="84.72" cy="52.18" r="6.46" style="fill: #FACA2B;"></circle><path id="Layer_1-2" dataName="Layer 1" class="cls-1" d="M103.09,44a4.06,4.06,0,1,0-2.72,5.06A4.05,4.05,0,0,0,103.09,44Z" style="fill: #FACA2B;"></path><path id="Layer_1-2" dataName="Layer 1" class="cls-2" d="M51.09,107.63A5.55,5.55,0,1,0,57,112.82,5.55,5.55,0,0,0,51.09,107.63Z" style="fill: #EE3923;"></path><circle id="Layer_1-2" dataName="Layer 1" class="cls-3" cx="36.83" cy="109.08" r="3.92" style="fill: #F15942;"></circle><circle id="Layer_1-2" dataName="Layer 1" class="cls-4" cx="40.75" cy="6.33" r="3.18" style="fill: #F8B0BE;"></circle><circle id="Layer_1-2" dataName="Layer 1" class="cls-4" cx="26.13" cy="8.01" r="8.01" style="fill: #F8B0BE;"></circle><path id="Layer_1-2" dataName="Layer 1" class="cls-5" d="M14.31,65.05a7.16,7.16,0,1,0-7.16,7.16A7.16,7.16,0,0,0,14.31,65.05Z" style="fill: #39bf91; fill-opacity: 1;"></path><path id="Layer_1-2" dataName="Layer 1" class="cls-5" d="M14.22,47.05a5.06,5.06,0,1,0-5.06,5.06A5.07,5.07,0,0,0,14.22,47.05Z" style="fill: #39bf91; fill-opacity: 1;"></path><path id="Layer_1-2" dataName="Layer 1" class="cls-4" d="M47.61,55.08c0-.06,0-.11,0-.17a1,1,0,0,0,0,.17Z" style="fill: #F8B0BE;"></path><path id="Layer_1-2" dataName="Layer 1" class="cls-4" d="M20.57,39.07c.14-.39.29-.79.44-1.18C20.86,38.28,20.71,38.68,20.57,39.07Z" style="fill: #F8B0BE;"></path><path id="Layer_1-2" dataName="Layer 1" class="cls-4" d="M21.41,36.91c.16-.38.32-.76.49-1.13C21.73,36.15,21.57,36.53,21.41,36.91Z" style="fill: #F8B0BE;"></path><path id="Layer_1-2" dataName="Layer 1" class="cls-4" d="M50,45l-.15.59A42.33,42.33,0,0,1,87.11,14.71c-1.37-.35-2.75-.67-4.15-.93a79.62,79.62,0,0,0-14.87-1.23q-25.1,0-37.79,11.6a35,35,0,0,0-4.69,5.26A43.31,43.31,0,0,1,50,45Z" style="fill: #F8B0BE;"></path><path id="Layer_1-2" dataName="Layer 1" class="cls-4" d="M49.47,47.15a.69.69,0,0,1,0,.1l.06-.13.09-.39C49.55,46.87,49.5,47,49.47,47.15Z" style="fill: #F8B0BE;"></path><path id="Layer_1-2" dataName="Layer 1" class="cls-4" d="M18.69,46.1c.08-.45.17-.9.26-1.34C18.86,45.2,18.77,45.65,18.69,46.1Z" style="fill: #F8B0BE;"></path><path id="Layer_1-2" dataName="Layer 1" class="cls-4" d="M19.21,43.67c.11-.43.21-.86.33-1.29C19.42,42.81,19.32,43.24,19.21,43.67Z" style="fill: #F8B0BE;"></path><path id="Layer_1-2" dataName="Layer 1" class="cls-4" d="M19.84,41.33c.12-.42.25-.83.38-1.24C20.09,40.5,20,40.91,19.84,41.33Z" style="fill: #F8B0BE;"></path><path id="Layer_1-2" dataName="Layer 1" class="cls-4" d="M48.27,50.72c0,.07,0,.15-.05.22S48.25,50.79,48.27,50.72Z" style="fill: #F8B0BE;"></path><path id="Layer_1-2" dataName="Layer 1" class="cls-4" d="M48.84,48.76l-.09.28Z" style="fill: #F8B0BE;"></path><path id="Layer_1-2" dataName="Layer 1" class="cls-4" d="M47.86,52.85h0Z" style="fill: #F8B0BE;"></path><path id="Layer_1-2" dataName="Layer 1" class="cls-4" d="M24.54,31c.22-.34.45-.67.68-1C25,30.29,24.76,30.62,24.54,31Z" style="fill: #F8B0BE;"></path><path id="Layer_1-2" dataName="Layer 1" class="cls-4" d="M22.35,34.84c.18-.37.36-.73.55-1.09C22.71,34.11,22.53,34.47,22.35,34.84Z" style="fill: #F8B0BE;"></path><path id="Layer_1-2" dataName="Layer 1" class="cls-4" d="M23.39,32.86c.2-.36.41-.7.62-1.05C23.8,32.16,23.59,32.5,23.39,32.86Z" style="fill: #F8B0BE;"></path><path id="Layer_1-2" dataName="Layer 1" class="cls-5" d="M50,69.71c0-.07-.07-.14-.11-.2l-.17-.33a15.78,15.78,0,0,1-.66-1.44L49,67.46c-.22-.57-.41-1.18-.58-1.8,0-.14-.07-.29-.11-.43-.15-.59-.28-1.2-.38-1.83a1.7,1.7,0,0,1,0-.22c-.11-.69-.19-1.42-.25-2.16,0-.18,0-.36,0-.54,0-.76-.09-1.54-.09-2.36,0-.51,0-1,0-1.48,0-.15,0-.3,0-.45q0-.49.06-1a.61.61,0,0,1,0-.14c-.71,0-1.42,0-2.14,0a47.8,47.8,0,0,1-26.93-8.25l-.06.35c-.08.48-.15,1-.22,1.47s-.11.74-.16,1.11c-.06.53-.11,1.07-.16,1.6,0,.36-.08.72-.11,1.08,0,.61-.07,1.22-.11,1.84,0,.31,0,.61,0,.93,0,.94-.05,1.89-.05,2.86q0,21.83,12.89,33.42c.49.44,1,.86,1.5,1.27l.48.38.64.48A41.93,41.93,0,0,1,50,69.71Z" style="fill: #39bf91; fill-opacity: 1;"></path><path id="Layer_1-2" dataName="Layer 1" class="cls-6" d="M45.47,55.13c.72,0,1.43,0,2.14,0h0a1,1,0,0,1,0-.17c0-.71.13-1.39.23-2h0c.1-.66.22-1.29.36-1.91,0-.07,0-.15.05-.22.14-.59.3-1.14.48-1.68l.09-.28c.18-.52.38-1,.59-1.51a.69.69,0,0,0,0-.1c0-.15.08-.28.11-.42.09-.37.19-.73.29-1.1L50,45A43.31,43.31,0,0,0,25.61,29.41l-.39.55c-.23.33-.46.66-.68,1l-.53.85c-.21.35-.42.69-.62,1.05s-.33.59-.49.89-.37.72-.55,1.09l-.45.94c-.17.37-.33.75-.49,1.13s-.27.65-.4,1-.3.79-.44,1.18-.24.68-.35,1-.26.82-.38,1.24-.21.7-.3,1.05-.22.86-.33,1.29-.17.72-.26,1.09-.18.89-.26,1.34l-.15.78A47.8,47.8,0,0,0,45.47,55.13Z" style="fill: #3fe7fe; fill-opacity: 1;"></path><path id="Layer_1-2" dataName="Layer 1" class="cls-1" d="M85.63,76.76l.37,0Z" style="fill: #FACA2B;"></path><path id="Layer_1-2" dataName="Layer 1" class="cls-1" d="M86.71,76.83c.14,0,.27,0,.41.06C87,76.87,86.85,76.84,86.71,76.83Z" style="fill: #FACA2B;"></path><path id="Layer_1-2" dataName="Layer 1" class="cls-1" d="M89.78,77.69l.36.17Z" style="fill: #FACA2B;"></path><path id="Layer_1-2" dataName="Layer 1" class="cls-1" d="M87.76,77l.42.1Z" style="fill: #FACA2B;"></path><path id="Layer_1-2" dataName="Layer 1" class="cls-1" d="M90.74,78.19l.31.18Z" style="fill: #FACA2B;"></path><path id="Layer_1-2" dataName="Layer 1" class="cls-1" d="M88.79,77.29l.4.15Z" style="fill: #FACA2B;"></path><path id="Layer_1-2" dataName="Layer 1" class="cls-1" d="M95,94.83c-.1.25-.21.5-.32.75C94.79,95.33,94.9,95.08,95,94.83Z" style="fill: #FACA2B;"></path><path id="Layer_1-2" dataName="Layer 1" class="cls-1" d="M94.55,95.84q-.21.41-.45.78Q94.34,96.25,94.55,95.84Z" style="fill: #FACA2B;"></path><path id="Layer_1-2" dataName="Layer 1" class="cls-1" d="M95.53,85.31l.06.36Z" style="fill: #FACA2B;"></path><path id="Layer_1-2" dataName="Layer 1" class="cls-1" d="M91.73,78.86l.16.11Z" style="fill: #FACA2B;"></path><path id="Layer_1-2" dataName="Layer 1" class="cls-1" d="M93.29,97.72c-.17.2-.35.4-.53.58C92.94,98.12,93.12,97.92,93.29,97.72Z" style="fill: #FACA2B;"></path><path id="Layer_1-2" dataName="Layer 1" class="cls-1" d="M95.3,84.18c0,.13.07.26.1.4C95.37,84.44,95.33,84.31,95.3,84.18Z" style="fill: #FACA2B;"></path><path id="Layer_1-2" dataName="Layer 1" class="cls-1" d="M84.5,76.81c.13,0,.25,0,.38,0C84.75,76.8,84.63,76.79,84.5,76.81Z" style="fill: #FACA2B;"></path><path id="Layer_1-2" dataName="Layer 1" class="cls-1" d="M92.58,98.48c-.25.23-.5.45-.76.66C92.08,98.93,92.33,98.71,92.58,98.48Z" style="fill: #FACA2B;"></path><path id="Layer_1-2" dataName="Layer 1" class="cls-1" d="M95.55,92.63a7,7,0,0,1-.14.8A7,7,0,0,0,95.55,92.63Z" style="fill: #FACA2B;"></path><path id="Layer_1-2" dataName="Layer 1" class="cls-1" d="M95.65,91.3a8.94,8.94,0,0,1-.06,1A8.94,8.94,0,0,0,95.65,91.3Z" style="fill: #FACA2B;"></path><path id="Layer_1-2" dataName="Layer 1" class="cls-1" d="M95.36,93.67a8.15,8.15,0,0,1-.29,1A8.15,8.15,0,0,0,95.36,93.67Z" style="fill: #FACA2B;"></path><path id="Layer_1-2" dataName="Layer 1" class="cls-1" d="M93.37,80.43c.08.09.15.2.22.29C93.52,80.63,93.45,80.52,93.37,80.43Z" style="fill: #FACA2B;"></path><path id="Layer_1-2" dataName="Layer 1" class="cls-1" d="M95,83.14l.15.4Z" style="fill: #FACA2B;"></path><path id="Layer_1-2" dataName="Layer 1" class="cls-1" d="M52.1,72.44A13.26,13.26,0,0,1,51,71.17,13.26,13.26,0,0,0,52.1,72.44Z" style="fill: #FACA2B;"></path><path id="Layer_1-2" dataName="Layer 1" class="cls-1" d="M92.67,79.66l.17.19Z" style="fill: #FACA2B;"></path><path id="Layer_1-2" dataName="Layer 1" class="cls-1" d="M94.52,82.17c.06.12.13.25.19.38C94.65,82.42,94.58,82.29,94.52,82.17Z" style="fill: #FACA2B;"></path><path id="Layer_1-2" dataName="Layer 1" class="cls-1" d="M94,81.26l.21.35Z" style="fill: #FACA2B;"></path><path id="Layer_1-2" dataName="Layer 1" class="cls-1" d="M94.05,96.71a9.3,9.3,0,0,1-.59.81A9.3,9.3,0,0,0,94.05,96.71Z" style="fill: #FACA2B;"></path><path id="Layer_1-2" dataName="Layer 1" class="cls-1" d="M52.24,72.58a14.6,14.6,0,0,0,1.32,1.16A16.1,16.1,0,0,1,52.24,72.58Z" style="fill: #FACA2B;"></path><path id="Layer_1-2" dataName="Layer 1" class="cls-1" d="M50.67,70.66l0,.08.15.2Z" style="fill: #FACA2B;"></path><path id="Layer_1-2" dataName="Layer 1" class="cls-1" d="M49.87,45.63c-.1.37-.2.73-.29,1.1l-.09.39a13.63,13.63,0,0,1,3.8-5q5.81-4.71,16.85-4.71A58.64,58.64,0,0,1,83,38.74a10.12,10.12,0,0,0,12.35-9.86V24.52a9.91,9.91,0,0,0-7.33-9.58l-.94-.23A42.33,42.33,0,0,0,49.87,45.63Z" style="fill: #FACA2B;"></path><path id="Layer_1-2" dataName="Layer 1" class="cls-2" d="M89.36,100.53l.6-.26.29-.14.55-.31.27-.16c.2-.13.4-.26.59-.41l.13-.09-1.13,0a42.22,42.22,0,0,1-33.1-16,43.31,43.31,0,0,1-9.62,17.46l.47.13,1.05.26,1.36.32,1.09.23q.69.15,1.41.27l1.12.2,1.47.22,1.14.16,1.56.17c.38,0,.76.09,1.14.12l1.67.13,1.12.08c.63,0,1.27.07,1.91.09l1,0c1,0,2,0,3,0A85,85,0,0,0,83.17,102c1.69-.31,3.36-.66,5-1.07a8.75,8.75,0,0,0,.91-.28Z" style="fill: #EE3923;"></path><path id="Layer_1-2" dataName="Layer 1" class="cls-7" d="M50.67,70.71c-.22-.32-.43-.66-.63-1a41.93,41.93,0,0,0-16.91,24c.15.1.29.22.44.33l.71.5,1,.69.73.46,1.14.66.72.4c.43.24.88.46,1.33.69l.6.3q1,.47,2,.9l.3.11c.59.24,1.19.48,1.81.7l.76.26c.47.16.94.33,1.43.48l.9.26.89.26a43.31,43.31,0,0,0,9.62-17.46A42,42,0,0,1,50.67,70.71Z" style="fill: #E12028;"></path><path id="Layer_1-2" dataName="Layer 1" class="cls-8" d="M57.56,83.21a42.22,42.22,0,0,0,33.1,16l1.13,0,0,0c.26-.21.51-.43.76-.66l.18-.18c.18-.18.36-.38.53-.58l.17-.2a9.3,9.3,0,0,0,.59-.81l0-.09q.24-.37.45-.78c0-.09.08-.17.13-.26.11-.25.22-.5.32-.75,0-.07,0-.13.07-.2a8.15,8.15,0,0,0,.29-1,2,2,0,0,0,0-.24,7,7,0,0,0,.14-.8,2.89,2.89,0,0,0,0-.29,8.94,8.94,0,0,0,.06-1V86.79a10.37,10.37,0,0,0-.06-1.12l-.06-.36a5.86,5.86,0,0,0-.13-.73c0-.14-.07-.27-.1-.4s-.12-.43-.19-.64l-.15-.4c-.08-.2-.16-.4-.25-.59s-.13-.26-.19-.38-.21-.38-.32-.56L94,81.26l-.4-.54c-.07-.09-.14-.2-.22-.29s-.35-.39-.53-.58l-.17-.19q-.37-.36-.78-.69l-.16-.11c-.22-.17-.45-.33-.68-.49l-.31-.18c-.19-.11-.39-.23-.6-.33l-.36-.17c-.2-.09-.39-.18-.59-.25l-.4-.15-.61-.18-.42-.1c-.21-.05-.42-.09-.64-.12s-.27,0-.41-.06-.47,0-.71,0l-.37,0a6.27,6.27,0,0,0-.75,0c-.13,0-.25,0-.38,0a11.2,11.2,0,0,0-1.14.17l-.12,0a61.62,61.62,0,0,1-12.83,1.3q-10.77,0-16.85-4.57a14.6,14.6,0,0,1-1.32-1.16l-.14-.14A13.26,13.26,0,0,1,51,71.17l-.17-.23-.15-.2,0,0A42,42,0,0,0,57.56,83.21Z" style="fill: #FF5A0B;"></path></svg> <svg y="482.0349998474121" viewBox="1.6800000667572021 4.159999847412109 494.4800109863281 11.460000038146973" x="40.25999389648439" height="11.460000038146973" width="494.4800109863281" style="overflow: visible;"><g fill="#FACA2B" fill-opacity="1" style=""><path d="M3.28 14.10L9.81 14.10L9.81 15.49L1.68 15.49L1.68 4.29L9.58 4.29L9.58 5.68L3.28 5.68L3.28 9.12L8.90 9.12L8.90 10.48L3.28 10.48L3.28 14.10ZM26.32 15.49L24.78 15.49L24.77 7.33L20.72 14.13L19.98 14.13L15.94 7.38L15.94 15.49L14.40 15.49L14.40 4.29L15.71 4.29L20.38 12.16L24.99 4.29L26.30 4.29L26.32 15.49ZM36.05 4.29Q38.22 4.29 39.47 5.33Q40.72 6.37 40.72 8.19L40.72 8.19Q40.72 10.02 39.47 11.06Q38.22 12.10 36.05 12.10L36.05 12.10L33.28 12.10L33.28 15.49L31.68 15.49L31.68 4.29L36.05 4.29ZM36 10.70Q37.52 10.70 38.32 10.06Q39.12 9.41 39.12 8.19L39.12 8.19Q39.12 6.98 38.32 6.33Q37.52 5.68 36 5.68L36 5.68L33.28 5.68L33.28 10.70L36 10.70ZM50.29 15.62Q48.59 15.62 47.23 14.87Q45.87 14.13 45.10 12.82Q44.32 11.50 44.32 9.89L44.32 9.89Q44.32 8.27 45.10 6.96Q45.87 5.65 47.23 4.90Q48.59 4.16 50.29 4.16L50.29 4.16Q51.97 4.16 53.33 4.90Q54.69 5.65 55.46 6.95Q56.22 8.26 56.22 9.89L56.22 9.89Q56.22 11.52 55.46 12.82Q54.69 14.13 53.33 14.87Q51.97 15.62 50.29 15.62L50.29 15.62ZM50.29 14.19Q51.52 14.19 52.50 13.63Q53.49 13.07 54.06 12.09Q54.62 11.10 54.62 9.89L54.62 9.89Q54.62 8.67 54.06 7.69Q53.49 6.70 52.50 6.14Q51.52 5.58 50.29 5.58L50.29 5.58Q49.06 5.58 48.06 6.14Q47.06 6.70 46.49 7.69Q45.92 8.67 45.92 9.89L45.92 9.89Q45.92 11.10 46.49 12.09Q47.06 13.07 48.06 13.63Q49.06 14.19 50.29 14.19L50.29 14.19ZM74.62 4.29L76.14 4.29L72.40 15.49L70.72 15.49L67.66 6.54L64.61 15.49L62.90 15.49L59.15 4.29L60.80 4.29L63.82 13.39L66.98 4.29L68.45 4.29L71.54 13.44L74.62 4.29ZM81.70 14.10L88.22 14.10L88.22 15.49L80.10 15.49L80.10 4.29L88.00 4.29L88.00 5.68L81.70 5.68L81.70 9.12L87.31 9.12L87.31 10.48L81.70 10.48L81.70 14.10ZM102.05 15.49L100.30 15.49L97.89 12.05Q97.44 12.08 97.18 12.08L97.18 12.08L94.42 12.08L94.42 15.49L92.82 15.49L92.82 4.29L97.18 4.29Q99.36 4.29 100.61 5.33Q101.86 6.37 101.86 8.19L101.86 8.19Q101.86 9.49 101.22 10.40Q100.58 11.31 99.39 11.73L99.39 11.73L102.05 15.49ZM97.14 10.72Q98.66 10.72 99.46 10.06Q100.26 9.41 100.26 8.19L100.26 8.19Q100.26 6.98 99.46 6.33Q98.66 5.68 97.14 5.68L97.14 5.68L94.42 5.68L94.42 10.72L97.14 10.72ZM106.45 15.49L106.45 4.29L108.05 4.29L108.05 15.49L106.45 15.49ZM121.44 4.29L123.04 4.29L123.04 15.49L121.73 15.49L115.01 7.14L115.01 15.49L113.41 15.49L113.41 4.29L114.72 4.29L121.44 12.64L121.44 4.29ZM136.16 13.47L136.16 9.82L137.70 9.82L137.70 14.19Q136.86 14.88 135.76 15.25Q134.66 15.62 133.46 15.62L133.46 15.62Q131.76 15.62 130.40 14.87Q129.04 14.13 128.26 12.82Q127.49 11.52 127.49 9.89L127.49 9.89Q127.49 8.26 128.26 6.94Q129.04 5.63 130.41 4.90Q131.78 4.16 133.49 4.16L133.49 4.16Q134.83 4.16 135.93 4.60Q137.02 5.04 137.79 5.89L137.79 5.89L136.80 6.88Q135.46 5.58 133.55 5.58L133.55 5.58Q132.27 5.58 131.26 6.14Q130.24 6.69 129.66 7.67Q129.09 8.66 129.09 9.89L129.09 9.89Q129.09 11.10 129.66 12.09Q130.24 13.07 131.26 13.63Q132.27 14.19 133.54 14.19L133.54 14.19Q135.04 14.19 136.16 13.47L136.16 13.47ZM156.59 9.68Q157.57 9.95 158.13 10.66Q158.69 11.38 158.69 12.46L158.69 12.46Q158.69 13.92 157.59 14.70Q156.50 15.49 154.40 15.49L154.40 15.49L149.06 15.49L149.06 4.29L154.08 4.29Q156 4.29 157.05 5.06Q158.10 5.82 158.10 7.18L158.10 7.18Q158.10 8.06 157.69 8.70Q157.28 9.34 156.59 9.68L156.59 9.68ZM153.94 5.58L150.66 5.58L150.66 9.17L153.94 9.17Q155.17 9.17 155.83 8.71Q156.50 8.26 156.50 7.38L156.50 7.38Q156.50 6.50 155.83 6.04Q155.17 5.58 153.94 5.58L153.94 5.58ZM154.34 14.19Q155.70 14.19 156.38 13.74Q157.07 13.30 157.07 12.34L157.07 12.34Q157.07 10.46 154.34 10.46L154.34 10.46L150.66 10.46L150.66 14.19L154.34 14.19ZM167.81 15.62Q165.57 15.62 164.32 14.34Q163.07 13.06 163.07 10.66L163.07 10.66L163.07 4.29L164.67 4.29L164.67 10.59Q164.67 14.19 167.82 14.19L167.82 14.19Q169.36 14.19 170.18 13.30Q170.99 12.42 170.99 10.59L170.99 10.59L170.99 4.29L172.54 4.29L172.54 10.66Q172.54 13.07 171.30 14.34Q170.05 15.62 167.81 15.62L167.81 15.62ZM181.09 15.62Q179.82 15.62 178.65 15.22Q177.47 14.83 176.80 14.21L176.80 14.21L177.39 12.96Q178.03 13.54 179.03 13.90Q180.03 14.26 181.09 14.26L181.09 14.26Q182.48 14.26 183.17 13.78Q183.86 13.31 183.86 12.53L183.86 12.53Q183.86 11.95 183.48 11.59Q183.10 11.23 182.55 11.04Q182 10.85 180.99 10.61L180.99 10.61Q179.73 10.30 178.95 10Q178.18 9.70 177.62 9.06Q177.07 8.43 177.07 7.36L177.07 7.36Q177.07 6.46 177.54 5.74Q178.02 5.02 178.98 4.59Q179.94 4.16 181.36 4.16L181.36 4.16Q182.35 4.16 183.31 4.42Q184.27 4.67 184.96 5.15L184.96 5.15L184.43 6.43Q183.73 5.98 182.93 5.75Q182.13 5.52 181.36 5.52L181.36 5.52Q180 5.52 179.32 6.02Q178.64 6.51 178.64 7.30L178.64 7.30Q178.64 7.87 179.02 8.23Q179.41 8.59 179.98 8.79Q180.54 8.99 181.52 9.22L181.52 9.22Q182.78 9.52 183.55 9.82Q184.32 10.13 184.87 10.75Q185.42 11.38 185.42 12.43L185.42 12.43Q185.42 13.31 184.94 14.04Q184.46 14.77 183.49 15.19Q182.51 15.62 181.09 15.62L181.09 15.62ZM189.76 15.49L189.76 4.29L191.36 4.29L191.36 15.49L189.76 15.49ZM204.75 4.29L206.35 4.29L206.35 15.49L205.04 15.49L198.32 7.14L198.32 15.49L196.72 15.49L196.72 4.29L198.03 4.29L204.75 12.64L204.75 4.29ZM213.31 14.10L219.84 14.10L219.84 15.49L211.71 15.49L211.71 4.29L219.62 4.29L219.62 5.68L213.31 5.68L213.31 9.12L218.93 9.12L218.93 10.48L213.31 10.48L213.31 14.10ZM227.70 15.62Q226.43 15.62 225.26 15.22Q224.08 14.83 223.41 14.21L223.41 14.21L224 12.96Q224.64 13.54 225.64 13.90Q226.64 14.26 227.70 14.26L227.70 14.26Q229.09 14.26 229.78 13.78Q230.46 13.31 230.46 12.53L230.46 12.53Q230.46 11.95 230.09 11.59Q229.71 11.23 229.16 11.04Q228.61 10.85 227.60 10.61L227.60 10.61Q226.34 10.30 225.56 10Q224.78 9.70 224.23 9.06Q223.68 8.43 223.68 7.36L223.68 7.36Q223.68 6.46 224.15 5.74Q224.62 5.02 225.58 4.59Q226.54 4.16 227.97 4.16L227.97 4.16Q228.96 4.16 229.92 4.42Q230.88 4.67 231.57 5.15L231.57 5.15L231.04 6.43Q230.34 5.98 229.54 5.75Q228.74 5.52 227.97 5.52L227.97 5.52Q226.61 5.52 225.93 6.02Q225.25 6.51 225.25 7.30L225.25 7.30Q225.25 7.87 225.63 8.23Q226.02 8.59 226.58 8.79Q227.15 8.99 228.13 9.22L228.13 9.22Q229.39 9.52 230.16 9.82Q230.93 10.13 231.48 10.75Q232.03 11.38 232.03 12.43L232.03 12.43Q232.03 13.31 231.55 14.04Q231.07 14.77 230.10 15.19Q229.12 15.62 227.70 15.62L227.70 15.62ZM239.63 15.62Q238.37 15.62 237.19 15.22Q236.02 14.83 235.34 14.21L235.34 14.21L235.94 12.96Q236.58 13.54 237.58 13.90Q238.58 14.26 239.63 14.26L239.63 14.26Q241.02 14.26 241.71 13.78Q242.40 13.31 242.40 12.53L242.40 12.53Q242.40 11.95 242.02 11.59Q241.65 11.23 241.10 11.04Q240.54 10.85 239.54 10.61L239.54 10.61Q238.27 10.30 237.50 10Q236.72 9.70 236.17 9.06Q235.62 8.43 235.62 7.36L235.62 7.36Q235.62 6.46 236.09 5.74Q236.56 5.02 237.52 4.59Q238.48 4.16 239.90 4.16L239.90 4.16Q240.90 4.16 241.86 4.42Q242.82 4.67 243.50 5.15L243.50 5.15L242.98 6.43Q242.27 5.98 241.47 5.75Q240.67 5.52 239.90 5.52L239.90 5.52Q238.54 5.52 237.86 6.02Q237.18 6.51 237.18 7.30L237.18 7.30Q237.18 7.87 237.57 8.23Q237.95 8.59 238.52 8.79Q239.09 8.99 240.06 9.22L240.06 9.22Q241.33 9.52 242.10 9.82Q242.86 10.13 243.42 10.75Q243.97 11.38 243.97 12.43L243.97 12.43Q243.97 13.31 243.49 14.04Q243.01 14.77 242.03 15.19Q241.06 15.62 239.63 15.62L239.63 15.62ZM249.90 14.10L256.43 14.10L256.43 15.49L248.30 15.49L248.30 4.29L256.21 4.29L256.21 5.68L249.90 5.68L249.90 9.12L255.52 9.12L255.52 10.48L249.90 10.48L249.90 14.10ZM264.29 15.62Q263.02 15.62 261.85 15.22Q260.67 14.83 260.00 14.21L260.00 14.21L260.59 12.96Q261.23 13.54 262.23 13.90Q263.23 14.26 264.29 14.26L264.29 14.26Q265.68 14.26 266.37 13.78Q267.06 13.31 267.06 12.53L267.06 12.53Q267.06 11.95 266.68 11.59Q266.30 11.23 265.75 11.04Q265.20 10.85 264.19 10.61L264.19 10.61Q262.93 10.30 262.15 10Q261.38 9.70 260.82 9.06Q260.27 8.43 260.27 7.36L260.27 7.36Q260.27 6.46 260.74 5.74Q261.22 5.02 262.18 4.59Q263.14 4.16 264.56 4.16L264.56 4.16Q265.55 4.16 266.51 4.42Q267.47 4.67 268.16 5.15L268.16 5.15L267.63 6.43Q266.93 5.98 266.13 5.75Q265.33 5.52 264.56 5.52L264.56 5.52Q263.20 5.52 262.52 6.02Q261.84 6.51 261.84 7.30L261.84 7.30Q261.84 7.87 262.22 8.23Q262.61 8.59 263.18 8.79Q263.74 8.99 264.72 9.22L264.72 9.22Q265.98 9.52 266.75 9.82Q267.52 10.13 268.07 10.75Q268.62 11.38 268.62 12.43L268.62 12.43Q268.62 13.31 268.14 14.04Q267.66 14.77 266.69 15.19Q265.71 15.62 264.29 15.62L264.29 15.62ZM281.49 15.49L281.49 5.68L277.65 5.68L277.65 4.29L286.91 4.29L286.91 5.68L283.07 5.68L283.07 15.49L281.49 15.49ZM298.69 4.29L300.29 4.29L300.29 15.49L298.69 15.49L298.69 10.50L292.26 10.50L292.26 15.49L290.66 15.49L290.66 4.29L292.26 4.29L292.26 9.10L298.69 9.10L298.69 4.29ZM314.88 15.49L313.14 15.49L310.72 12.05Q310.27 12.08 310.02 12.08L310.02 12.08L307.25 12.08L307.25 15.49L305.65 15.49L305.65 4.29L310.02 4.29Q312.19 4.29 313.44 5.33Q314.69 6.37 314.69 8.19L314.69 8.19Q314.69 9.49 314.05 10.40Q313.41 11.31 312.22 11.73L312.22 11.73L314.88 15.49ZM309.97 10.72Q311.49 10.72 312.29 10.06Q313.09 9.41 313.09 8.19L313.09 8.19Q313.09 6.98 312.29 6.33Q311.49 5.68 309.97 5.68L309.97 5.68L307.25 5.68L307.25 10.72L309.97 10.72ZM324.34 15.62Q322.64 15.62 321.28 14.87Q319.92 14.13 319.14 12.82Q318.37 11.50 318.37 9.89L318.37 9.89Q318.37 8.27 319.14 6.96Q319.92 5.65 321.28 4.90Q322.64 4.16 324.34 4.16L324.34 4.16Q326.02 4.16 327.38 4.90Q328.74 5.65 329.50 6.95Q330.27 8.26 330.27 9.89L330.27 9.89Q330.27 11.52 329.50 12.82Q328.74 14.13 327.38 14.87Q326.02 15.62 324.34 15.62L324.34 15.62ZM324.34 14.19Q325.57 14.19 326.55 13.63Q327.54 13.07 328.10 12.09Q328.67 11.10 328.67 9.89L328.67 9.89Q328.67 8.67 328.10 7.69Q327.54 6.70 326.55 6.14Q325.57 5.58 324.34 5.58L324.34 5.58Q323.10 5.58 322.10 6.14Q321.10 6.70 320.54 7.69Q319.97 8.67 319.97 9.89L319.97 9.89Q319.97 11.10 320.54 12.09Q321.10 13.07 322.10 13.63Q323.10 14.19 324.34 14.19L324.34 14.19ZM339.36 15.62Q337.12 15.62 335.87 14.34Q334.62 13.06 334.62 10.66L334.62 10.66L334.62 4.29L336.22 4.29L336.22 10.59Q336.22 14.19 339.38 14.19L339.38 14.19Q340.91 14.19 341.73 13.30Q342.54 12.42 342.54 10.59L342.54 10.59L342.54 4.29L344.10 4.29L344.10 10.66Q344.10 13.07 342.85 14.34Q341.60 15.62 339.36 15.62L339.36 15.62ZM357.14 13.47L357.14 9.82L358.67 9.82L358.67 14.19Q357.84 14.88 356.74 15.25Q355.63 15.62 354.43 15.62L354.43 15.62Q352.74 15.62 351.38 14.87Q350.02 14.13 349.24 12.82Q348.46 11.52 348.46 9.89L348.46 9.89Q348.46 8.26 349.24 6.94Q350.02 5.63 351.38 4.90Q352.75 4.16 354.46 4.16L354.46 4.16Q355.81 4.16 356.90 4.60Q358 5.04 358.77 5.89L358.77 5.89L357.78 6.88Q356.43 5.58 354.53 5.58L354.53 5.58Q353.25 5.58 352.23 6.14Q351.22 6.69 350.64 7.67Q350.06 8.66 350.06 9.89L350.06 9.89Q350.06 11.10 350.64 12.09Q351.22 13.07 352.23 13.63Q353.25 14.19 354.51 14.19L354.51 14.19Q356.02 14.19 357.14 13.47L357.14 13.47ZM371.76 4.29L373.36 4.29L373.36 15.49L371.76 15.49L371.76 10.50L365.33 10.50L365.33 15.49L363.73 15.49L363.73 4.29L365.33 4.29L365.33 9.10L371.76 9.10L371.76 4.29ZM387.25 15.49L387.25 5.68L383.41 5.68L383.41 4.29L392.67 4.29L392.67 5.68L388.83 5.68L388.83 15.49L387.25 15.49ZM404.45 4.29L406.05 4.29L406.05 15.49L404.45 15.49L404.45 10.50L398.02 10.50L398.02 15.49L396.42 15.49L396.42 4.29L398.02 4.29L398.02 9.10L404.45 9.10L404.45 4.29ZM413.01 14.10L419.54 14.10L419.54 15.49L411.41 15.49L411.41 4.29L419.31 4.29L419.31 5.68L413.01 5.68L413.01 9.12L418.62 9.12L418.62 10.48L413.01 10.48L413.01 14.10ZM435.44 15.62Q433.76 15.62 432.41 14.87Q431.06 14.13 430.29 12.82Q429.52 11.52 429.52 9.89L429.52 9.89Q429.52 8.26 430.29 6.95Q431.06 5.65 432.42 4.90Q433.78 4.16 435.46 4.16L435.46 4.16Q436.77 4.16 437.86 4.60Q438.94 5.04 439.71 5.90L439.71 5.90L438.67 6.91Q437.41 5.58 435.52 5.58L435.52 5.58Q434.27 5.58 433.26 6.14Q432.26 6.70 431.69 7.69Q431.12 8.67 431.12 9.89L431.12 9.89Q431.12 11.10 431.69 12.09Q432.26 13.07 433.26 13.63Q434.27 14.19 435.52 14.19L435.52 14.19Q437.39 14.19 438.67 12.85L438.67 12.85L439.71 13.86Q438.94 14.72 437.85 15.17Q436.75 15.62 435.44 15.62L435.44 15.62ZM444 15.49L444 4.29L445.60 4.29L445.60 14.10L451.66 14.10L451.66 15.49L444 15.49ZM460.35 15.62Q458.66 15.62 457.30 14.87Q455.94 14.13 455.16 12.82Q454.38 11.50 454.38 9.89L454.38 9.89Q454.38 8.27 455.16 6.96Q455.94 5.65 457.30 4.90Q458.66 4.16 460.35 4.16L460.35 4.16Q462.03 4.16 463.39 4.90Q464.75 5.65 465.52 6.95Q466.29 8.26 466.29 9.89L466.29 9.89Q466.29 11.52 465.52 12.82Q464.75 14.13 463.39 14.87Q462.03 15.62 460.35 15.62L460.35 15.62ZM460.35 14.19Q461.58 14.19 462.57 13.63Q463.55 13.07 464.12 12.09Q464.69 11.10 464.69 9.89L464.69 9.89Q464.69 8.67 464.12 7.69Q463.55 6.70 462.57 6.14Q461.58 5.58 460.35 5.58L460.35 5.58Q459.12 5.58 458.12 6.14Q457.12 6.70 456.55 7.69Q455.98 8.67 455.98 9.89L455.98 9.89Q455.98 11.10 456.55 12.09Q457.12 13.07 458.12 13.63Q459.12 14.19 460.35 14.19L460.35 14.19ZM475.38 15.62Q473.14 15.62 471.89 14.34Q470.64 13.06 470.64 10.66L470.64 10.66L470.64 4.29L472.24 4.29L472.24 10.59Q472.24 14.19 475.39 14.19L475.39 14.19Q476.93 14.19 477.74 13.30Q478.56 12.42 478.56 10.59L478.56 10.59L478.56 4.29L480.11 4.29L480.11 10.66Q480.11 13.07 478.86 14.34Q477.62 15.62 475.38 15.62L475.38 15.62ZM485.39 15.49L485.39 4.29L490.11 4.29Q491.89 4.29 493.26 4.99Q494.64 5.70 495.40 6.97Q496.16 8.24 496.16 9.89L496.16 9.89Q496.16 11.54 495.40 12.81Q494.64 14.08 493.26 14.78Q491.89 15.49 490.11 15.49L490.11 15.49L485.39 15.49ZM486.99 14.10L490.02 14.10Q491.38 14.10 492.41 13.57Q493.44 13.04 494 12.09Q494.56 11.14 494.56 9.89L494.56 9.89Q494.56 8.64 494 7.69Q493.44 6.74 492.41 6.21Q491.38 5.68 490.02 5.68L490.02 5.68L486.99 5.68L486.99 14.10Z" transform="translate(0, 0)"></path></g></svg> <svg y="390.9650001525879" viewBox="4.289999961853027 6.03000020980835 378.4100036621094 68.66999816894531" x="98.2949853515625" height="68.66999816894531" width="378.4100036621094" style="overflow: visible;"><g fill="#ffffff" fill-opacity="1" style=""><path d="M30.15 59.70L30.15 59.70Q24.72 59.70 20.00 57.65Q15.28 55.61 11.76 51.96Q8.24 48.31 6.26 43.42Q4.29 38.52 4.29 32.83L4.29 32.83Q4.29 27.20 6.26 22.34Q8.24 17.49 11.76 13.84Q15.28 10.18 19.97 8.11Q24.66 6.03 30.15 6.03L30.15 6.03Q35.31 6.03 39.03 7.37Q42.75 8.71 46.50 11.79L46.50 11.79Q47.03 12.19 47.34 12.63Q47.64 13.06 47.74 13.50Q47.84 13.94 47.84 14.54L47.84 14.54Q47.84 15.81 46.93 16.65Q46.03 17.49 44.76 17.59Q43.48 17.69 42.28 16.75L42.28 16.75Q39.80 14.61 37.15 13.47Q34.51 12.33 30.15 12.33L30.15 12.33Q26.20 12.33 22.71 13.94Q19.23 15.54 16.58 18.36Q13.94 21.17 12.46 24.89Q10.99 28.61 10.99 32.83L10.99 32.83Q10.99 37.12 12.46 40.84Q13.94 44.55 16.58 47.37Q19.23 50.18 22.71 51.76Q26.20 53.33 30.15 53.33L30.15 53.33Q33.57 53.33 36.62 52.16Q39.66 50.99 42.48 48.91L42.48 48.91Q43.68 48.04 44.86 48.14Q46.03 48.24 46.83 49.08Q47.64 49.91 47.64 51.39L47.64 51.39Q47.64 52.06 47.37 52.70Q47.10 53.33 46.57 53.87L46.57 53.87Q42.95 56.75 38.83 58.22Q34.71 59.70 30.15 59.70ZM60.93 59.03L60.80 59.03Q57.85 59.03 55.57 57.42Q53.30 55.81 52.02 53.03Q50.75 50.25 50.75 46.63L50.75 46.63L50.75 10.05Q50.75 8.58 51.69 7.64Q52.63 6.70 54.10 6.70L54.10 6.70Q55.57 6.70 56.51 7.64Q57.45 8.58 57.45 10.05L57.45 10.05L57.45 46.63Q57.45 49.11 58.39 50.72Q59.33 52.33 60.80 52.33L60.80 52.33L62.47 52.33Q63.81 52.33 64.65 53.27Q65.49 54.20 65.49 55.68L65.49 55.68Q65.49 57.15 64.22 58.09Q62.94 59.03 60.93 59.03L60.93 59.03ZM80.80 59.30L80.80 59.30Q75.37 59.30 71.21 56.92Q67.06 54.54 64.68 50.35Q62.30 46.16 62.30 40.74L62.30 40.74Q62.30 35.24 64.68 31.05Q67.06 26.87 71.21 24.49Q75.37 22.11 80.80 22.11L80.80 22.11Q86.16 22.11 90.31 24.49Q94.46 26.87 96.84 31.05Q99.22 35.24 99.22 40.74L99.22 40.74Q99.22 46.16 96.88 50.35Q94.53 54.54 90.38 56.92Q86.22 59.30 80.80 59.30ZM80.80 53.27L80.80 53.27Q84.28 53.27 86.96 51.66Q89.64 50.05 91.15 47.23Q92.65 44.42 92.65 40.74L92.65 40.74Q92.65 37.05 91.15 34.20Q89.64 31.36 86.96 29.75Q84.28 28.14 80.80 28.14L80.80 28.14Q77.31 28.14 74.63 29.75Q71.95 31.36 70.41 34.20Q68.87 37.05 68.87 40.74L68.87 40.74Q68.87 44.42 70.41 47.23Q71.95 50.05 74.63 51.66Q77.31 53.27 80.80 53.27ZM118.81 59.36L118.81 59.36Q114.19 59.36 110.54 57.39Q106.89 55.41 104.78 51.59Q102.67 47.77 102.67 42.21L102.67 42.21L102.67 25.73Q102.67 24.25 103.64 23.28Q104.61 22.31 106.08 22.31L106.08 22.31Q107.56 22.31 108.53 23.28Q109.50 24.25 109.50 25.73L109.50 25.73L109.50 42.21Q109.50 45.96 110.91 48.41Q112.31 50.85 114.73 52.03Q117.14 53.20 120.15 53.20L120.15 53.20Q123.03 53.20 125.28 52.06Q127.52 50.92 128.86 48.98Q130.20 47.03 130.20 44.62L130.20 44.62L134.43 44.62Q134.43 48.78 132.38 52.13Q130.34 55.48 126.82 57.42Q123.30 59.36 118.81 59.36ZM133.62 59.03L133.62 59.03Q132.15 59.03 131.18 58.06Q130.20 57.08 130.20 55.61L130.20 55.61L130.20 25.73Q130.20 24.19 131.18 23.25Q132.15 22.31 133.62 22.31L133.62 22.31Q135.16 22.31 136.10 23.25Q137.04 24.19 137.04 25.73L137.04 25.73L137.04 55.61Q137.04 57.08 136.10 58.06Q135.16 59.03 133.62 59.03ZM159.71 59.30L159.71 59.30Q154.49 59.30 150.30 56.85Q146.11 54.40 143.67 50.18Q141.22 45.96 141.22 40.67L141.22 40.67Q141.22 35.38 143.47 31.19Q145.71 27.00 149.60 24.56Q153.48 22.11 158.37 22.11L158.37 22.11Q162.33 22.11 165.68 23.75Q169.03 25.39 171.30 28.21L171.30 28.21L171.30 10.12Q171.30 8.58 172.28 7.64Q173.25 6.70 174.72 6.70L174.72 6.70Q176.26 6.70 177.20 7.64Q178.14 8.58 178.14 10.12L178.14 10.12L178.14 40.67Q178.14 45.96 175.69 50.18Q173.25 54.40 169.09 56.85Q164.94 59.30 159.71 59.30ZM159.71 53.27L159.71 53.27Q163.13 53.27 165.81 51.62Q168.49 49.98 170.03 47.10Q171.57 44.22 171.57 40.67L171.57 40.67Q171.57 37.05 170.03 34.24Q168.49 31.42 165.81 29.78Q163.13 28.14 159.71 28.14L159.71 28.14Q156.36 28.14 153.65 29.78Q150.94 31.42 149.36 34.24Q147.79 37.05 147.79 40.67L147.79 40.67Q147.79 44.22 149.36 47.10Q150.94 49.98 153.65 51.62Q156.36 53.27 159.71 53.27ZM201.42 59.30L201.42 59.30Q195.86 59.30 191.54 56.92Q187.21 54.54 184.77 50.35Q182.32 46.16 182.32 40.74L182.32 40.74Q182.32 35.24 184.63 31.05Q186.95 26.87 191.03 24.49Q195.12 22.11 200.41 22.11L200.41 22.11Q205.64 22.11 209.39 24.42Q213.14 26.73 215.12 30.79Q217.10 34.84 217.10 40.13L217.10 40.13Q217.10 41.41 216.22 42.24Q215.35 43.08 214.01 43.08L214.01 43.08L187.01 43.08L187.01 37.72L213.81 37.72L211.07 39.60Q211.00 36.25 209.73 33.60Q208.45 30.95 206.11 29.41Q203.76 27.87 200.41 27.87L200.41 27.87Q196.59 27.87 193.88 29.55Q191.17 31.22 189.76 34.14Q188.35 37.05 188.35 40.74L188.35 40.74Q188.35 44.42 190.03 47.30Q191.70 50.18 194.65 51.86Q197.60 53.53 201.42 53.53L201.42 53.53Q203.49 53.53 205.67 52.76Q207.85 51.99 209.19 50.99L209.19 50.99Q210.19 50.25 211.37 50.22Q212.54 50.18 213.41 50.92L213.41 50.92Q214.55 51.92 214.62 53.13Q214.68 54.34 213.54 55.21L213.54 55.21Q211.27 57.02 207.88 58.16Q204.50 59.30 201.42 59.30ZM228.65 59.03L228.52 59.03Q225.57 59.03 223.29 57.42Q221.01 55.81 219.74 53.03Q218.47 50.25 218.47 46.63L218.47 46.63L218.47 10.05Q218.47 8.58 219.40 7.64Q220.34 6.70 221.82 6.70L221.82 6.70Q223.29 6.70 224.23 7.64Q225.17 8.58 225.17 10.05L225.17 10.05L225.17 46.63Q225.17 49.11 226.10 50.72Q227.04 52.33 228.52 52.33L228.52 52.33L230.19 52.33Q231.53 52.33 232.37 53.27Q233.21 54.20 233.21 55.68L233.21 55.68Q233.21 57.15 231.93 58.09Q230.66 59.03 228.65 59.03L228.65 59.03ZM237.99 59.03L237.99 59.03Q236.52 59.03 235.55 58.06Q234.58 57.08 234.58 55.61L234.58 55.61L234.58 25.80Q234.58 24.25 235.55 23.32Q236.52 22.38 237.99 22.38L237.99 22.38Q239.53 22.38 240.47 23.32Q241.41 24.25 241.41 25.80L241.41 25.80L241.41 55.61Q241.41 57.08 240.47 58.06Q239.53 59.03 237.99 59.03ZM237.99 16.41L237.99 16.41Q236.18 16.41 234.88 15.11Q233.57 13.80 233.57 11.99L233.57 11.99Q233.57 10.18 234.88 8.88Q236.18 7.57 237.99 7.57L237.99 7.57Q239.80 7.57 241.11 8.88Q242.41 10.18 242.41 11.99L242.41 11.99Q242.41 13.80 241.11 15.11Q239.80 16.41 237.99 16.41ZM251.56 74.70L251.56 74.70Q250.08 74.70 249.11 73.73Q248.14 72.76 248.14 71.29L248.14 71.29L248.14 40.74Q248.21 35.44 250.62 31.22Q253.03 27.00 257.19 24.56Q261.34 22.11 266.56 22.11L266.56 22.11Q271.86 22.11 276.01 24.56Q280.17 27.00 282.61 31.22Q285.06 35.44 285.06 40.74L285.06 40.74Q285.06 46.03 282.81 50.22Q280.57 54.40 276.68 56.85Q272.80 59.30 267.90 59.30L267.90 59.30Q263.95 59.30 260.64 57.65Q257.32 56.01 254.97 53.20L254.97 53.20L254.97 71.29Q254.97 72.76 254.04 73.73Q253.10 74.70 251.56 74.70ZM266.56 53.27L266.56 53.27Q269.98 53.27 272.66 51.62Q275.34 49.98 276.92 47.13Q278.49 44.29 278.49 40.74L278.49 40.74Q278.49 37.12 276.92 34.27Q275.34 31.42 272.66 29.78Q269.98 28.14 266.56 28.14L266.56 28.14Q263.21 28.14 260.50 29.78Q257.79 31.42 256.25 34.27Q254.71 37.12 254.71 40.74L254.71 40.74Q254.71 44.29 256.25 47.13Q257.79 49.98 260.50 51.62Q263.21 53.27 266.56 53.27ZM304.65 59.36L304.65 59.36Q300.03 59.36 296.38 57.39Q292.73 55.41 290.61 51.59Q288.50 47.77 288.50 42.21L288.50 42.21L288.50 25.73Q288.50 24.25 289.48 23.28Q290.45 22.31 291.92 22.31L291.92 22.31Q293.40 22.31 294.37 23.28Q295.34 24.25 295.34 25.73L295.34 25.73L295.34 42.21Q295.34 45.96 296.75 48.41Q298.15 50.85 300.56 52.03Q302.98 53.20 305.99 53.20L305.99 53.20Q308.87 53.20 311.12 52.06Q313.36 50.92 314.70 48.98Q316.04 47.03 316.04 44.62L316.04 44.62L320.26 44.62Q320.26 48.78 318.22 52.13Q316.18 55.48 312.66 57.42Q309.14 59.36 304.65 59.36ZM319.46 59.03L319.46 59.03Q317.98 59.03 317.01 58.06Q316.04 57.08 316.04 55.61L316.04 55.61L316.04 25.73Q316.04 24.19 317.01 23.25Q317.98 22.31 319.46 22.31L319.46 22.31Q321.00 22.31 321.94 23.25Q322.88 24.19 322.88 25.73L322.88 25.73L322.88 55.61Q322.88 57.08 321.94 58.06Q321.00 59.03 319.46 59.03ZM343.47 59.03L342.27 59.03Q338.92 59.03 336.24 57.32Q333.56 55.61 332.02 52.66Q330.48 49.71 330.48 46.03L330.48 46.03L330.48 14.07Q330.48 12.60 331.41 11.66Q332.35 10.72 333.83 10.72L333.83 10.72Q335.30 10.72 336.24 11.66Q337.18 12.60 337.18 14.07L337.18 14.07L337.18 46.03Q337.18 48.71 338.65 50.52Q340.12 52.33 342.27 52.33L342.27 52.33L344.55 52.33Q345.75 52.33 346.59 53.27Q347.43 54.20 347.43 55.68L347.43 55.68Q347.43 57.15 346.32 58.09Q345.22 59.03 343.47 59.03L343.47 59.03ZM342.87 29.48L327.39 29.48Q325.99 29.48 325.12 28.68Q324.25 27.87 324.25 26.67L324.25 26.67Q324.25 25.33 325.12 24.52Q325.99 23.72 327.39 23.72L327.39 23.72L342.87 23.72Q344.28 23.72 345.15 24.52Q346.02 25.33 346.02 26.67L346.02 26.67Q346.02 27.87 345.15 28.68Q344.28 29.48 342.87 29.48L342.87 29.48ZM367.02 59.30L367.02 59.30Q361.46 59.30 357.14 56.92Q352.82 54.54 350.37 50.35Q347.93 46.16 347.93 40.74L347.93 40.74Q347.93 35.24 350.24 31.05Q352.55 26.87 356.64 24.49Q360.72 22.11 366.02 22.11L366.02 22.11Q371.24 22.11 374.99 24.42Q378.75 26.73 380.72 30.79Q382.70 34.84 382.70 40.13L382.70 40.13Q382.70 41.41 381.83 42.24Q380.96 43.08 379.62 43.08L379.62 43.08L352.62 43.08L352.62 37.72L379.42 37.72L376.67 39.60Q376.60 36.25 375.33 33.60Q374.06 30.95 371.71 29.41Q369.37 27.87 366.02 27.87L366.02 27.87Q362.20 27.87 359.48 29.55Q356.77 31.22 355.36 34.14Q353.96 37.05 353.96 40.74L353.96 40.74Q353.96 44.42 355.63 47.30Q357.31 50.18 360.25 51.86Q363.20 53.53 367.02 53.53L367.02 53.53Q369.10 53.53 371.28 52.76Q373.45 51.99 374.79 50.99L374.79 50.99Q375.80 50.25 376.97 50.22Q378.14 50.18 379.01 50.92L379.01 50.92Q380.15 51.92 380.22 53.13Q380.29 54.34 379.15 55.21L379.15 55.21Q376.87 57.02 373.49 58.16Q370.10 59.30 367.02 59.30Z" transform="translate(0, 0)"></path></g></svg></svg>